#N canvas 0 0 1350 704 12;
#X obj 150 84 osc~;
#X floatatom 150 61 5 0 0 0 - - - 0;
#X obj 150 198 *~;
#X obj 180 115 vsl 19 80 0 1 0 0 empty empty empty 0 -9 0 12 #fcfcfc #000000 #000000 0 1;
#X floatatom 180 203 5 0 0 0 - - - 0;
#X obj 149 239 writesf~;
#X obj 319 55 bng 19 250 50 0 empty empty empty 0 -10 0 12 #fcfcfc #000000 #000000;
#X msg 319 79 start;
#X obj 367 79 del 500;
#X msg 367 103 stop;
#X msg 299 194 open sine4000.wav;
#X obj 530 390 soundfiler;
#N canvas 0 0 450 300 (subpatch) 0;
#X array sfarray 1027 float 0;
#X coords 0 1 1026 -1 200 140 1;
#X restore 900 130 graph;
#X floatatom 530 419 5 0 0 0 - - - 0;
#X floatatom 530 320 5 0 800 0 - - - 0;
#X floatatom 250 370 5 0 0 0 - - - 0;
#X obj 250 398 tabosc4~ sfarray;
#X obj 250 427 *~;
#X obj 390 322 vsl 19 80 0 1 0 0 empty empty empty 0 -9 0 12 #fcfcfc #000000 #000000 0 1;
#X floatatom 390 410 5 0 0 0 - - - 0;
#X obj 250 456 dac~;
#X obj 520 200 tgl 15 0 empty empty empty 17 7 0 10 #fcfcfc #000000 #000000 0 1;
#X obj 170 342 mtof;
#X obj 300 270 expr 1000 / $f1;
#X floatatom 300 299 5 0 0 0 - - - 0;
#X msg 170 280 40;
#X floatatom 170 309 5 0 0 0 - - - 0;
#X obj 520 224 metro 200;
#X obj 680 100 bng 15 250 50 0 empty empty empty 17 7 0 10 #fcfcfc #000000 #000000;
#X msg 530 350 read guit_\$1.wav sfarray;
#X obj 440 10 vsl 15 600 0 800 0 0 empty empty empty 0 -9 0 10 #fcfcfc #000000 #000000 0 1;
#X obj 480 192 i;
#X floatatom 480 221 5 0 0 0 - - - 0;
#X obj 800 400 bng 30 250 50 0 empty empty empty 17 7 0 10 #fcfcfc #000000 #000000;
#X obj 800 470 bng 30 250 50 0 empty empty empty 17 7 0 10 #fcfcfc #000000 #000000;
#X floatatom 930 420 5 0 0 0 - - - 0;
#X msg 840 430 1;
#X msg 840 470 -1;
#X msg 710 350 read sine_\$1.wav sfarray;
#X obj 481 460 t b;
#X msg 481 518 \; sfarray normalize;
#X obj 903 453 +;
#X obj 481 489 del 2;
#X floatatom 600 469 5 0 0 0 - - - 0;
#X obj 600 497 sel 1;
#X obj 620 530 bng 15 250 50 0 empty empty empty 17 7 0 10 #fcfcfc #000000 #000000;
#X obj 600 440 < 540;
#X msg 620 560 1;
#X obj 620 589 +;
#X floatatom 620 618 5 0 0 0 - - - 0;
#X obj 667 540 f;
#X obj 664 506 del 10;
#X obj 670 570 print window;
#X obj 518 252 random 300;
#X connect 0 0 2 0;
#X connect 1 0 0 0;
#X connect 2 0 5 0;
#X connect 3 0 2 1;
#X connect 3 0 4 0;
#X connect 6 0 7 0;
#X connect 6 0 8 0;
#X connect 7 0 5 0;
#X connect 8 0 9 0;
#X connect 9 0 5 0;
#X connect 10 0 5 0;
#X connect 11 0 13 0;
#X connect 13 0 46 0;
#X connect 14 0 29 0;
#X connect 14 0 39 0;
#X connect 15 0 16 0;
#X connect 16 0 17 0;
#X connect 17 0 20 0;
#X connect 17 0 20 1;
#X connect 18 0 19 0;
#X connect 19 0 17 1;
#X connect 21 0 27 0;
#X connect 22 0 15 0;
#X connect 22 0 23 0;
#X connect 23 0 24 0;
#X connect 25 0 26 0;
#X connect 26 0 22 0;
#X connect 27 0 53 0;
#X connect 29 0 11 0;
#X connect 30 0 31 0;
#X connect 31 0 32 0;
#X connect 32 0 14 0;
#X connect 33 0 36 0;
#X connect 34 0 37 0;
#X connect 35 0 30 0;
#X connect 35 0 41 1;
#X connect 35 0 50 1;
#X connect 36 0 41 0;
#X connect 37 0 41 0;
#X connect 38 0 11 0;
#X connect 39 0 42 0;
#X connect 41 0 35 0;
#X connect 43 0 44 0;
#X connect 44 0 45 0;
#X connect 45 0 47 0;
#X connect 45 0 51 0;
#X connect 46 0 43 0;
#X connect 47 0 48 0;
#X connect 48 0 49 0;
#X connect 49 0 48 1;
#X connect 50 0 52 0;
#X connect 51 0 50 0;
#X connect 53 0 31 0;
